<?xml version="1.0" encoding="UTF-8"?>
<svg id="Layer_2" data-name="Layer 2" xmlns="http://www.w3.org/2000/svg" viewBox="0 0 284.2 157.13">
  <defs>
    <style>
      .cls-1 {
        fill: #f37434;
      }

      .cls-1, .cls-2 {
        stroke-width: 0px;
      }

      .cls-2 {
        fill: #33b9db;
      }
    </style>
  </defs>
  <g id="Layer_2-2" data-name="Layer 2">
    <path class="cls-2" d="M47.12,147.14c-1.51-3.84-5.28-5.72-7.28-6.72-7.86-3.93-12.37.09-20.73-2.24-7.64-2.13-12.37-7.84-14.01-10.09-7.23-9.91-4.96-21.93-3.92-27.46.74-3.9,2.63-13.29,10.09-20.73,1.06-1.06,5-3.69,12.89-8.96,8.12-5.43,11.01-7.02,14.01-8.4,5.13-2.37,9.27-3.55,10.65-3.92,5.58-1.52,10.77-2.11,15.69-2.24,11.4-.31,16.94,1.95,32.5,4.48,21.97,3.58,20.8.69,27.46,3.92,5.36,2.6,18.49,10.48,24.09,17.93.55.73,2.14,2.94,5.04,4.48,2.93,1.56,5.35,1.47,8.4,1.68,9.23.63,9.17,2.92,18.49,3.36,4.26.2,7.26-.14,9.53-.56,1.21-.22,2.74-.57,6.16-1.68,8.61-2.8,12.91-4.2,14.57-6.72,2.59-3.94,1.3-8.88,1.12-9.53-1.53-5.53-5.8-5.37-8.4-10.65-2.33-4.72-1.26-9.6.56-17.93,0,0,.47-2.15,4.48-14.57-2.09-4.04-1.84-6.41-1.12-7.84,1.12-2.25,4.48-4.48,4.48-4.48,1.41-.35,3.43-1.08,5.04-2.8,2.05-2.17,1.5-3.84,3.36-7.28.94-1.74,2.87-5.29,6.72-6.72,3.18-1.18,6.14-.34,7.28,0,3.19.95,5.29,2.93,6.72,4.48.86.93,21.67,23.82,14.57,36.42-1.17,2.08-3.6,4.76-2.8,7.84.66,2.54,2.85,2.8,3.36,5.04.71,3.14-3.04,5.03-6.16,10.09-.99,1.61-4.92,8.37-3.92,15.69.88,6.5,5.06,9.15,3.36,12.89-1.26,2.78-4.2,2.69-4.48,5.04-.38,3.14,4.78,4.09,5.04,8.4.13,2.07-.84,5.34-3.05,7.46-.57.55-.78.59-.87.94-.73,2.75,10.34,6.37,16.81,10.09.81.47,2.9,1.71,5.35,1.18.11-.02.2-.05.26-.06,3.26-.85,4.12-3.84,6.16-4.48,2.26-.71,6.1,1.39,6.16,3.92.05,2.06-2.62,4.24-5.04,4.48-2.08.21-3.26-1.08-5.88-.47-.86.2-1.83.42-2.1,1.12-.55,1.4,1.93,4.26,4.9,5.46,2.51,1.02,3.32.02,7,1.12,1.99.6,4.08,1.22,4.48,2.8.32,1.27-.51,2.83-1.68,3.5-1.66.95-3.75-.04-5.74-.98-2.09-.99-2.21-1.56-4.76-3.08-2.72-1.62-4.93-2.94-6.3-2.1-.99.61-1.31,2.19-1.12,3.36.33,2.08,2.16,2.26,3.78,5.18.69,1.25,1.46,2.62.98,4.06-.53,1.61-2.49,2.9-4.06,2.52-2.18-.52-2.69-4.02-2.8-4.76-.32-2.16.49-2.57,0-4.62-.18-.76-.64-2.69-2.38-3.78-1.36-.85-2.79-.74-3.22-.7-3.24.3-5.07,3.45-5.18,3.64-1.05,1.88-.46,2.82-1.54,3.78-1.24,1.09-3.82,1.47-5.04,0-1.07-1.29-.61-3.44.42-4.48.88-.89,1.83-.63,3.5-1.26,2.13-.81,3.37-2.3,3.92-2.94,1.05-1.22,3.09-3.59,2.24-5.6-.64-1.5-2.64-1.98-3.78-2.24-3.66-.85-4.95.96-9.25.7-1.55-.09-3.88-.24-6.02-1.82-2.78-2.05-3.57-5.27-3.92-6.72-.41-1.69-.74-3.04-.28-4.62.27-.9.72-1.66.98-3.22.14-.89.34-2.07,0-2.24-.73-.36-3.42,4.18-5.46,6.86-1.43,1.88-4.31,5.18-15.55,11.07-11.06,5.79-16.6,8.69-23.39,9.95-15.59,2.88-28.74-2.3-36.42-5.32-5.68-2.23-9.55-4.53-16.11-8.4-5.56-3.29-8.75-5.61-11.77-9.1-.8-.93-1.59-1.94-3.64-5.04-6.68-10.1-6.87-12.33-10.65-17.51-4.53-6.22-9.35-10.01-11.63-11.77-1.83-1.42-6.37-4.76-12.61-7.56-4.72-2.12-18.54-8.09-36-4.62-4.37.87-14.79,3.48-24.79,11.77-4.99,4.13-14.46,11.97-16.11,24.51-.37,2.85-1.4,10.66,3.36,16.67,3.36,4.24,8.27,5.91,11.07,6.86,5.44,1.86,6.6.51,13.31,2.52,4.89,1.47,8.2,2.51,10.65,5.74,2.26,3,2.92,6.74,2.52,9.67-.18,1.33-.66,3.09-1.12,3.08-.55-.02-.53-2.51-1.4-4.72Z"/>
    <path class="cls-2" d="M168.47,71.42c.12-1.14,1.71-3.81,2.9-4.17.7-.21,2.59.61,4.95,1.26,1.27.35,1.93.53,2.8.56.58.02,2.94.1,3.36-.84.52-1.16-1.87-3.89-4.76-5.32-3.36-1.67-5.61-.71-6.16-1.96-.81-1.83-1.09-8.9,5.32-5.6,1.07.55,1.01,1.63,3.08,4.48,1.47,2.03,2.86,3.94,5.04,4.2,1.17.14,3.02-.15,3.92-1.4,1.41-1.96-.89-4.3.56-7.28.17-.36,1.03-2.12,2.52-2.24,1.48-.12,3.02,1.41,3.08,2.8.05,1.09-.84,1.3-1.68,3.08-.24.51-1.58,3.38-.28,5.32.51.75,1.51,1.51,2.52,1.4,1.01-.11,1.63-1.02,2.8-2.8,1.32-2,1.1-1.71,1.49-2.05,2.8-2.43,8.66,2.4,2.61,5.98-.84.5-1.82-.22-3.92.56-.44.16-1.56.59-2.43,1.68-.76.95-1.6,2.73-.93,3.92.54.96,1.86,1.16,2.99,1.31,7.62,1.01,12.51,1.12,12.51,1.12,5.22.12,5.54.28,5.79.56,3.23,3.57-1.9,18.14-8.78,18.86-2.36.25-4.47-1.21-7.84-3.55-5.12-3.54-5.27-5.98-8.78-6.91-4.06-1.07-6.6,1.46-8.03,0-2.16-2.2,2.75-8.85.56-10.83-1.09-.99-3.45-.37-4.86,0-2.93.77-5.55,2.16-7.05,1.82-1.66-.38-3.53-1.9-3.32-3.96Z"/>
    <path class="cls-2" d="M142.42,32.37c-.33.48-1.03,1.53-.75,2.61.33,1.26,1.72,1.53,4.11,2.99.51.31,2.44,1.5,3.92,2.99,1.29,1.3,3.61,3.63,3.36,6.16-.32,3.19-4.41,3.67-4.86,7.47-.2,1.69.54,2.24,0,3.36-.79,1.63-3.01,1.85-6.72,2.43,0,0-7.26,1.13-13.82,2.99-3.4.96-5.1,1.46-5.42,2.24-2.19,5.48,16.19,21.58,21.67,18.3,1.42-.85,1.99-3.05,5.79-6.35.7-.61,1.51-1.25,2.61-1.87,1.49-.83,2.7-1.16,4.67-1.68,5.96-1.57,5.13-3.38,5.37-3.88.98-2.04,1.31-1.68.37-3.92-.43-1.03-2.31-3.19-1.09-3.36,1.07-.15,6.99-3.66,7.63-2.9,1.1,1.32,6.09-1.9,5.74,0-.47,2.56,1.58,1.76,2.1,2.38.62.74,1.15,1.15,2.05.07.66-.79-.04-1.5-.36-3.58-.36-2.27-1.44-1.32-1.91-3.5-.4-1.82-2.43.84-5.23-.56-2.51-1.25-2.23-1.25-.47-3.74,1.78-2.5,2.67-3.75,4.11-4.48,2.85-1.45,4.75-.03,7.1-1.87.41-.32,2.11-1.65,1.87-3.36-.2-1.43-1.68-2.64-2.99-2.61-.95.02-1.89,1.01-3.74,2.99-1.55,1.67-1.38,1.78-2.05,2.24-1.73,1.18-3.75,1.05-5.42.93-2.12-.14-3.17-.21-3.74-.93-1.31-1.68.75-5.07,2.98-7.9,1.82-2.32,4.6-2.04,5.24-3.87.41-1.16.03-2.65-.93-3.55-1.17-1.09-3.23-1.44-4.3-.37-2.61,2.61-.7,1.69-1.68,4.48-.11.32-.57,1.34-1.49,3.36-2.43,5.34-2.61,5.69-3.18,6.16-1.25,1.04-3.34,1.81-5.23,1.31-2.58-.68-5.07-2.93-6.91-6.72-1.95-4.01-.68-6.05-2.24-6.72-1.94-.84-4.84.28-6.16,2.24Z"/>
    <path class="cls-2" d="M101.94,83.78c.35,6.87,2.12,11.63,3.74,14.75.88,1.71,2.05,3.59,3.74,7.28,3.42,7.51,2.87,9.14,2.43,9.9-1.23,2.12-4.56,2.73-5.98,2.99-2.89.53-3.78-.34-5.04.56-1.67,1.19-.7,3.13-2.24,6.72-.62,1.45-1.85,4.31-4.48,5.6-2.91,1.43-4.73-.43-7.1,1.31-.1.07-2.38,1.8-2.24,4.48.02.29.12,2.31,1.49,3.18,2.41,1.52,6.8-1.75,7.47-2.24,3.45-2.57,3.52-4.8,6.16-5.42,1.64-.38,3.57.02,4.86,1.12.35.3,1.22,1.15,2.05,5.98.43,2.5.77,4.46.75,7.28-.03,4.03-.75,5.05.19,6.35,1.07,1.49,3.68,2.47,5.42,1.31,1.46-.97,1.76-3.06,1.31-4.48-.46-1.45-1.55-1.72-2.43-2.8-2.54-3.12-1.11-10.25,1.87-11.39,1.84-.71,2.64,1.5,8.59,2.99,2.4.6,3.12.46,4.86,1.31,2.87,1.41,3.59,3.13,4.67,2.8,1.51-.45,2.42-4.48.93-5.98-1.24-1.24-3.01.4-6.54-.56-.8-.22-2.34-1.2-5.42-3.18-2.82-1.81-3.65-2.51-3.74-3.55-.06-.75.25-1.74.93-2.05,1.15-.53,2.23,1.38,4.67,2.05,2.28.63,4.69-.11,6.16-1.12,2.52-1.73,3.08-4.81,3.36-6.35,1.79-9.81-11.13-32.09-12.14-33.81"/>
  </g>
  <g id="Layer_1-2" data-name="Layer 1">
    <g id="cmGYY0">
      <g>
        <path class="cls-1" d="M224.78,16.34c.66-.43,1.32-.86,1.97-1.31.36-.25.7-.52,1.01-.83.17-.17.24-.43.35-.66-1.06-.52-.52-1.34-.41-2.09.02-.12-.21-.27-.27-.35.47-.16.97-.33,1.47-.5l-.1-.35c-.86.27-1.93-.56-2.88.72-.29-.31-1-.72-.99-1.11.02-.99.05-2.18,1.26-2.59.76-.25,1.58-.32,2.38-.44.44-.07.89-.07,1.38-.1.83.95.73,1.95-.51,3,.72.26,1.26.45,1.84.65-.27.08-.55.17-.54.16.33.85.79,1.58.88,2.35.1.92.41.98,1.17.75,1.18-.36,2.05-.98,2.18-2.42-.25.23-.49.45-.69.63-.35-.31-.84-.58-1.08-1-.44-.77-1-1.63-.98-2.44,0-.45,1.06-1.2,1.67-1.22.54-.02,1.95-.14,1.45,1.48-.2.64.4,1.51.57,2.29.12.52.12,1.06.19,1.7.43.29.98.67,1.53,1.04.08-.07.15-.13.23-.2-.24-.37-.48-.74-.72-1.12l.23-.31c1.34.28,1.64,2.05,2.71,2.48.11-1.04.23-2.07.35-3.16h1.99c-.21-1.06-.48-1.92-1.62-2.08-.24-.03-.6.01-.74.17-.69.78-1.03.83-1.88.29-1-.64-2.31-1.05-1.63-2.71.04-.09-.44-.54-.71-.57-1.12-.13-2.25-.16-3.45-.23-.15-.38-.36-.89-.62-1.52-1.6,1.79-1.81-1.05-3.11-.52.24-.97.4-1.64.57-2.3-.08-.05-.16-.11-.25-.16-.36.51-.76,1-1.08,1.53-.4.66-.75,1.36-1.12,2.04-.52.99-1.4.83-1.99.32-.41-.36-.73-1.28-.56-1.78.69-2.08,2.67-3.25,5.01-3.26.64,0,1.31-.13,1.91-.35,1.65-.6,2.74-.29,3.46,1.33.6,1.34,1.5,1.63,2.89,1.92,2.12.45,3.5,2.13,4.38,4.2.72,1.68,1.68,3.26,2.51,4.9.17.33.18.72.33,1.06.55,1.32,1.13,2.63,1.68,3.94.1.24.23.49.26.75.17,1.36.39,2.68,1.58,3.58.84.63.7,1.4.37,2.25-.37.96-.1,1.6.78,2.32.93.76,1.49,1.96,1.97,3.13-1.29-.48-2.57-.96-4.27-1.58.39.98.54,1.6.86,2.1.36.57.78.49,1.48.23.47-.17,1.35.8,2.06,1.23.41.25.93.37,1.25.69.24.24.24.72.34,1.1.07.27.14.54.21.81.12-.02.23-.04.35-.06-.16.42-.32.84-.49,1.31-.4-.21-.77-.4-1.31-.68.26.7.46,1.23.8,2.11-2.35-3.16-4.48-6.03-7.31-8.24-.1.08-.2.16-.3.25.26.36.53.73.82,1.12-.11.03-.33.09-.67.19.97,1.41,1.4,3.09,3.18,3.87,1.14.5,1.44,1.48,1.35,2.67-.02.26.3.54.47.8.36.54.71,1.09,1.08,1.62.63.94.85,1.65-.11,2.73-.94,1.05-.71,2.61-.07,3.94.16.34.47.7.43,1.02-.05.4-.31.84-.61,1.12-.11.11-.62-.1-.88-.27-.37-.24-.72-.55-1-.89-.61-.73-1.03-1.49-2.31-1.38-.73.06-1.66-.61-1.52-1.89.12-1.14-1.23-2.39-2.37-2.46-.78-.04-1.63,1.11-1.43,1.89.45,1.78,1.2,3.38,3.07,3.98,2.04.65,2.15,2.15,1.74,3.77-.22.89-.15,1.4.52,2.07.63.63,1.09,1.66.17,2.42-.51.42-1.31,1-2.08.15.33-.51.97-1.08.87-1.43-.3-1.01.43-2.4-.88-3.02-.64-.31-1.49-.58-2.13-.42-1.47.37-3.35-.57-3.28-2.05.06-1.29,0-2.38-.6-3.58-.44-.88-.06-2.15-.41-3.11-.48-1.33-.92-2.59-.55-4,.16-.63.2-1.4.59-1.85.4-.45,1.17-.58,1.83-.87-.74-.86-1.82-1.78-2.43-2.95-.56-1.08-.59-2.43-.86-3.66.63-.41,1.39-.91,2.39-1.56.96,2.08,1.96,4.26,2.93,6.37-1.37.24-.64,1.89-1.44,2.76,1.61.88,3.19,1.62,4.62,2.57.41.27.61,1.16.57,1.74-.11,1.62.71,2.68,2.15,3.93.12-.96.2-1.64.29-2.31.18-1.38.41-2.76.53-4.14.03-.37-.12-.89-.38-1.14-.81-.77-1.78-1.39-2.57-2.18-1.09-1.08-2.18-2.18-3.05-3.43-.49-.71-.54-1.73-.79-2.61.14-.06.28-.13.41-.19.25.09.49.2.74.28,1.06.34,1.7-.1,1.26-1.09-.46-1.02-.17-1.29.62-1.65.09-.04.07-.34.11-.59-.3.07-.59.06-.76.2-1.72,1.39-2.9,1.06-4.81.16-2.75-1.3-4.26-3.55-5.76-5.91-.39-.61-.56-1.35-.86-2.02-.27-.61-.59-1.21-.97-1.99.28-.36.67-.85,1.06-1.34-.08-.09-.15-.19-.23-.28-.56.43-1.12.87-1.57,1.22v3.92c-.61,0-1.54-.01-2.46,0-.36,0-.61.41-.75,1-.14.58-1.45.6-.72,1.65.36.51.37,1.25.7,1.78.63,1.01,1.37,1.94,2.1,2.94.4-.14.87-.36,1.36-.45.55-.1,1.52-.28,1.62-.08.31.6,1.02,1.04.42,2.13-.83,1.48.24,2.99.9,4.42.53,1.14,1.34,2.3.63,3.61-.44.81-1.02,1.58-1.69,2.22-1,.97-.68,1.76.07,2.64.59.69,1.19,1.4,1.64,2.18.99,1.72-.36,2.7-1.4,3.79.44.74.9,1.43,1.26,2.16.17.34.3.81.22,1.17-.39,1.65-3.63,3.7-5.28,3.3-.43-.1-.76-.6-1.14-.91-.22-.17-.46-.32-.83-.59-.2-.9-.59-2.11-.7-3.35-.06-.62.39-1.28.73-2.25-.2-.14-.68-.49-1.29-.92.21-.78-.6-2.19,1.3-2.35.22-.02.38-.67.5-.9.25.24.69.82.85.75.52-.23.84-.5.55-1.38-.42-1.31-1-2.81.39-4.14.47-.45.58-1.36.69-2.09.04-.29-.37-.64-.72-1.18.02-.05.21-.45.46-1-.39.07-.62.11-.81.15.07-.48.27-.97.2-1.42-.13-.9-.48-1.77-.6-2.67-.08-.63.06-1.29.09-1.77-.56-.21-1.19-.54-1.86-.66-.29-.05-.73.25-.98.51-.25.26-.36.67-.57,1.08v-1.23c-.23.11-.58.37-.68.3-.35-.26-.88-.65-.87-.97.06-1.41.29-2.81.46-4.21.02-.13.05-.27.09-.52-.29.1-.49.16-.83.28.57-.81,1.07-1.53,1.57-2.24-.56-.44-1.47-.8-1.64-1.38-.2-.66.26-1.52.43-2.29,0,0-.04.04-.04.04ZM226.79,19.68c.86-1.02,2.57-1.22,2.49-3.02.51-.23,1.03-.46,1.55-.7-.05-.12-.09-.23-.14-.35-.41.15-.81.4-1.22.41-.36,0-.77-.2-1.05-.44-.14-.12-.04-.53-.05-.81-.17.29-.42.57-.51.89-.37,1.26-.68,2.54-1.07,4.01ZM244.9,18.52c.13-.08.26-.15.39-.23-.32-.69-.69-1.36-.97-2.07-.48-1.21-.72-1.28-1.74-.39.39.45.78.91,1.17,1.36.38.44.76.88,1.14,1.33ZM235.51,3.88c.03-.15.05-.3.08-.45-1.02-.42-2.03-.84-3.37-1.39.63,1.03,1.04,1.69,1.48,2.41.6-.19,1.21-.38,1.81-.57ZM246.63,25.49c.56.75-.34,2.15,1.26,2.27,0-.76.05-1.47-.06-2.16-.02-.1-.78-.08-1.2-.12Z"/>
        <path class="cls-1" d="M126.58,68.82c-2.32-.83-4.92-1.06-6.67-3.3-.89.97-1.65,1.83-2.44,2.65-.22.23-.51.41-.8.53-1.38.56-1.53,1.06-.74,2.4.59,1,1.37,1.97.73,3.24-.14.29-.28.75-.49.8-1.71.42-3.37,1.42-5.3.68-.41.85-.83,1.71-1.28,2.66.29.11.47.15.62.24.54.31,1.51.65,1.5.97,0,.77-.26,1.79-.8,2.24-.96.8-1,1.49-.6,2.55.24.63.22,1.42.12,2.11-.19,1.31-.49,2.56.43,3.77.33.44.32,1.14.52,1.92,2.08-.89,3.32.32,4.46,1.8-.58,1.71-2.11,1.12-3.38,1.3-.17.67-.33,1.33-.5,2.01-.21-.05-.42-.04-.45-.12-.62-1.44-1.44-2.7-2.72-3.7-.29-.22-.15-1.16,0-1.73.53-2.15-.22-3.81-1.93-5.47-.07.95-.1,1.67-.18,2.38-.1.84-.48,1-1.25.56-2.18-1.28-2.19-1.26-2.95-2.77,1.35-.43,2.24-2.61,4.22-.72.52-1.52,1.18-2.86,1.39-4.26.17-1.13-.83-1.63-1.82-.97-.75.51-1.08.29-1.42-.36-.2-.37-.48-.73-.57-1.13-.26-1.15-.67-1.94-2.1-1.8-.37.03-.86-.59-1.18-.99-.26-.33-.36-.8-.44-1-.92.39-1.69.66-2.39,1.06-.2.11-.33.81-.22.9.81.68,1.74,1.22,2.53,1.92.75.66,1.38,1.45,2.23,2.38-1.36.21-2.13.04-3.08-.69-1.07-.82-2.19-1.8-3.86-1.76-.72.02-1.82-.96-2.09-1.72-.19-.56.69-1.5,1.12-2.25.45-.79.87-1.6,1.42-2.32.44-.57,1-1.37,1.58-1.44,2.64-.33,2.94-2.28,3.06-4.25.09-1.55-.16-3.11-.26-4.8.13-.06.45-.2,1.09-.48-1.23-.81-2.27-1.5-3.32-2.19,1.51.83,3.01,1.3,4.8.91.58-.13,1.3.49,1.97.56,1.98.19,3.97.76,5.86.78,1.75.01,3.03,1.03,4.61,1.09,1.53.06,2.91.48,4.31,1.17,1.97.98,4.05.36,6.02-.33,1.77-.62,3.47-1.47,5.28-1.95,2.66-.71,5.4-1.15,8.09-1.75,2.2-.49,4.38-1.05,6.57-1.55.74-.17,1.49-.25,1.89-.32v-3.48c.15.08.3.16.44.24.84-.55,1.66-1.16,2.55-1.63.48-.25,1.07-.29,1.62-.4.3-.06.63-.04.91-.15,1.75-.72,3.53-1.4,5.22-2.24.71-.36,1.2-1.15,1.87-1.62.41-.28,1.08-.57,1.48-.43,1.14.4,2.25.95,3.3,1.56.73.42,1.62.78,1.54,1.94-.02.31.3.68.52.96.94,1.19,1.88,2.38,2.86,3.53,1.13,1.32,1.08,2.73.3,4.41-.23-1.4-.3-2.74-1.72-3.36-.17-.08.11-1.02-.11-1.21-.77-.64-1.67-1.12-2.56-1.68-.02-.57.02-1.42-.16-2.23-.03-.12-1.07-.02-2.07-.02.56.49.82.66.99.9.17.23.4.64.31.79-.15.24-.58.5-.83.45-1.02-.19-2.25.6-3.2-.72.59-.39,1.12-.74,1.64-1.08q-1.44-.97-3.39.98c.73,1.34,1.47,2.7,2.21,4.07-1.22.93-2.42.84-3.66-.14-.37-.29-1.28-.49-1.49-.28-1.08,1.08-2.23.96-3.49.52-.11-.04-.31.15-.65.32.39.18.65.23.81.38.29.27.76.62.73.89-.04.36-.43.81-.78.97-.86.4-1.78.66-2.95,1.07,1.89.59,3.5,1.21,5.17,1.57,1.11.24,1.23.75.82,1.56-.35.7-.82,1.36-1.31,1.98-.8,1.03-2.12,1.02-2.82-.08-.41-.66-.51-1.51-.86-2.23-.15-.31-.54-.66-.86-.7-.87-.11-1.77-.04-2.65-.11-.35-.03-.69-.23-1.04-.35.29-.26.55-.57.88-.76.42-.25.9-.42,1.54-.71-.51-.41-.85-.69-1.16-.94.16-.26.3-.5.46-.76-1.73.29-3.36.52-4.96.88-.32.07-.7.67-.74,1.06-.09.81-.3,1.29-1.23,1.25-1.04-.05-2.09-.01-3.14-.01-.02.21-.04.43-.06.64,1.13.13,2.26.38,3.39.37,1.25-.01,2.21.14,3.22,1.14,1.1,1.09,2.74,1.62,4.06,2.52.92.63,1.65,1.55,2.55,2.22.44.32,1.07.42,1.63.53,1.32.26,2.69.33,3.94.76.78.27,1.09,1.21.56,2.02-.49.75-2.24.93-2.93.35-.69-.59-1.26-1.34-1.97-1.9-.36-.28-1.07-.57-1.38-.4-.97.53-1.7.28-2.42-.38-.74-.68-1.41-1.45-2.21-2.04-.4-.3-1.18-.55-1.53-.36-.83.46-1.12-.11-1.66-.44-1.08-.66-2.21-1.28-3.39-1.71-1.08-.4-2.28-.48-3.4-.82-.74-.23-1-.8-.56-1.55.46-.8.91-1.6,1.39-2.45-5.52-.11-10.18,2.99-15.43,3.9,1.3,0,2.62.14,3.89-.03,1.61-.22,3.18-.73,4.79-1.03,1.14-.21,2.3-.35,3.46-.39.37-.01.76.39,1.14.6-.23.38-.37.99-.69,1.1-1.03.35-2.12.59-3.2.75-1.93.3-3.87.51-5.8.76-.01.16-.02.32-.03.49.36.32.73.65,1.09.97,0,0,.03-.03.03-.03ZM106.41,73.13c-.1.64-.18,1.12-.26,1.6.53.07,1.06.21,1.59.19.5-.02,1.07-.45,1.48-.31,1.9.65,1.58-.66,1.81-1.76.24-1.15.88-2.22,1.17-3.36.15-.61.15-1.45-.16-1.95-.39-.64-1.02-.46-1.62.12-.91.87-1.7.71-2.45-.27-.3-.4-.64-.77-.94-1.13-.52.55-.87,1.25-1.39,1.42-2.36.75-2.41,3.17-3.66,4.79,1.85.43,2.85-2,4.95-1.46q-1.75.96-.51,2.12ZM149,55.85c.21.78.4,1.79.49,1.78,1.06-.12,2.1-.38,3.09-.59-.12-.97-.2-1.64-.27-2.2.6-.3,1.07-.52,1.77-.87q-2.04-.67-3.46,2.2c-.37-.07-.76-.15-1.6-.32ZM154.19,57.44c1.36-1.08,3.22-1.65,3.85-3.63q-2.63-.19-3.85,3.63ZM115.93,64.6c-.88-.63-1.82-1.35-2.82-1.98-.21-.13-.8,0-.93.19-.18.27-.25.84-.09,1.08.6.87,3,1.16,3.83.71ZM163.15,50.59c-1-.72-2.06-.16-3.07.14-.23.07-.35.54-.52.82.33.04.69.18.97.08.84-.28,1.65-.65,2.62-1.05ZM107.77,61.83c-.09.25-.18.51-.27.76,1.1.35,2.21.69,3.31,1.04.06-.17.11-.34.17-.51-1.07-.43-2.14-.86-3.2-1.28Z"/>
        <path class="cls-1" d="M126.54,68.85c.43.18.86.36,1.29.54,1.3.53,2.64,1.48,3.87-.73.78,1.3,1.39,2.35,2.04,3.39.19.31.41.64.7.83,3.3,2.13,6.66,4.17,9.9,6.37,1.85,1.26,3.52,2.78,5.56,4.42-2.1.05-2.91-1.31-4-2.15-1.42-1.09-2.75-2.3-4.21-3.33-.45-.32-1.19-.22-1.87-.33-.34.9-.46,1.34.75,1.73.99.31,1.68,1.49,2.59,2.17.68.51,1.6,1.3,2.24,1.16,1.54-.32,2.39.52,3.3,1.33.68.6,1.16.72,2.08.32.76-.33,1.81-.1,2.71.02.9.12,1.78.42,2.76.66-.26.79-.49,1.47-.76,2.26-1.24-.22-2.64-.87-3.61.81,1.74.56,3.49,1.11,5.42,1.73-.49-.69-.91-1.28-1.57-2.21,1.75.35,3.13.25,3.1-1.93,1.14.6,2.08,1.08,2.98,1.61.08.05-.06.48-.13.9-.44-.37-.75-.63-1.09-.91-.59.89-1.15,1.74-1.74,2.64.68.68.61.59,1.38-.03.66-.52,1.52-.78,2.3-1.15.35.94.92,1.87.07,2.84-.06.06-.06.17-.04.11.35,1.91,1.68,2.45,3.24,2.9.66.19,1.15.98,1.68,1.53.37.38.67.83.99,1.25-1.06.68-2.12,1.36-3.17,2.05.04.2.09.41.13.61,1.13.09,2.26.28,3.38.24,1.1-.03,2.2-.29,3.3-.45,0-.18.01-.35.02-.53-1.07-.63-2.13-1.25-3.2-1.88.53-1.24.34-2.37-.39-3.49-.42-.65-.72-1.38-.97-1.87.46-.62.77-1.15,1.2-1.57.22-.21.66-.32.98-.28.46.05.91.27,1.36.41l.17-.35c-.16-.19-.33-.38-.59-.69.39,0,.92-.07.95.01.19.65.29,1.32.42,1.99-.13.05-.26.09-.39.14-.23-.22-.45-.43-.77-.74v1.57c.48.16,1.01.33,1.57.51.09-.49.17-.92.26-1.4.47.14.85.25,1.24.37,0,0-.04-.04-.04-.04.24.83.49,1.65.73,2.47-3.12-.39-1.63,2.54-3.27,3.42,1.99.51,3.59.92,5.13,1.32-.43,1.07-.65,2.45-1.44,3.32-.68.75-1.98,1.18-3.04,1.27-1.45.13-2.93-.16-4.4-.34-.51-.06-1.03-.26-1.48-.51-.73-.41-1.4-.92-2.22-1.18-.41-.59-.49-1.07-1.68-.68-1.39.45-2.91.98-4.54.58-1.38-.34-1.72-1.43-2.03-2.43-.16-.53.28-1.3.55-1.91.89-2,2.74-.57,4.07-1.09.47-.18,1.14.14,1.63-.02.48-.16,1.02-.57,1.21-1.01.09-.22-.46-.96-.85-1.1-1.61-.59-2.97-1.42-3.76-3.08-.3.08-.69.08-.8.24-.93,1.44-2.26.71-3.43.61-.95-.09-1.9-.35-2.81-.65-.93-.31-1.91-.64-2.66-1.23-.29-.23.03-1.21.09-2.11-1.19-.86-2.6-2.13-4.23-2.98-1.42-.74-3.05-1.14-4.64-1.45-1.1-.21-2.85-1.34-2.85-2.38,0-1.02-.48-1.51-1.31-1.92-1.47-.73-1.79-1.68-1.15-3.06-2.96-1.47-3.89-1.67-5.4-.94,1.11.87,2.08,1.64,3.09,2.44-.04.43-.1.94-.11,1.12,1.1.66,2.13,1.17,3,1.88.27.22.25,1.1.04,1.51-.46.9-1.05,1.76-1.72,2.51-.44.5-1.11.82-1.71,1.14-.53.29-1.34.31-1.65.72-1,1.32-2.53,1.46-3.86,2.08-.6.28-1.24.93-1.41,1.53-.32,1.14-.78,1.65-2.17,1.05.27,1.42.28,2.72.78,3.8.71,1.55-1.21,1.98-.97,3.65-1.9-1.69-3.52-3.13-5.06-4.5.37-.12,1.02-.34,1.95-.66.32.32.77.77,1.18,1.18.02-1.44.22-2.81,1.64-3.94.78-.62,1.05-1.97,1.34-3.05.07-.25-.65-.93-1.11-1.07-.99-.29-2.04-.35-3.52-.57,1.21-1.56,2.17-2.9,3.24-4.13.45-.52,2.63.19,3.16,1.09.77,1.31,1.56,1.63,2.75.51.32-.3.94-.29,1.26-.59.4-.37.62-.92.92-1.39-.12-.1-.23-.21-.35-.31l-1.45.56c-.06-.09-.12-.17-.18-.26.37-.29.75-.57,1.21-.92-.69-.64-1.47-1.19-2.02-1.92-1.3-1.72-.87-3.07,1.09-3.84,1.19-.47,2.33-1.04,3.53-1.46.5-.18,1.09-.1,1.62-.13-.78-1.1-.75-1.03-2.06-.49-1.28.53-2.65.84-3.92,1.4-1.51.66-2.53,1.95-2.82,3.51-.26,1.4-1.07,2.03-2.15,2.69-.78.48-1.37,1.28-2.05,1.93-.74.71-1.51,1.39-2.19,2.14-.35.38-.65.87-.79,1.36-.35,1.23-.58,2.5-.87,3.77-.58-.09-.88-.13-1.24-.19v.89c-2.27,0-1.73-2.07-2.56-3.14,1.92-.64,2.14-1.08,1.51-3.02-.32-.98-.2-1.49.85-2.1,2.03-1.18,3.93-2.63,5.72-4.16.47-.4.48-1.49.48-2.26,0-.45-.43-.91-.65-1.33.82-1.12,1.42-2.5,2.47-3.21,1-.68,2.48-.67,3.93-1.01-.29-.43-.6-.9-.92-1.36,0,0-.04.03-.04.03Z"/>
        <path class="cls-1" d="M126.53,103.72l-2.43-5.56c.11-.06.21-.13.32-.19.32.16.65.31.96.49.45.27,1.11.9,1.3.78.72-.46,1.58-1.05,1.84-1.78.38-1.08.25-2.34.42-3.5.05-.35.54-.96.61-.93,1.68.73,2.53-.68,3.5-1.45,1.22-.98,2.49-.52,3.56-.86.64-.44,1.24-.96,1.92-1.3,1.11-.56,2.27-1.04,3.44-1.46.39-.14.91-.09,1.31.05.56.19,1.15.46,1.57.85.26.25.34.82.29,1.22-.08.63-.33,1.24-.54,1.96,3.35-.19,4.47.75,5,3.8.07.42.41.89.76,1.14.82.57,1.87.87,2.55,1.55.5.5.84,1.47.76,2.17-.12,1.03-.81,1.97-1.04,3-.25,1.1-.94,1.79-1.89,1.69-.82-.08-1.58-.78-2.63-1.35-.04.25-.33.87-.14,1.24.47.88,1.16,1.65,1.76,2.46.28.38.54.77.87,1.22.33-.15.94-.63,1.59-.68.6-.05,1.25.34,1.76.5.37-.44.68-.82,1.12-1.34-.14.97-.43,1.68-.31,2.32.3,1.67.66,3.35,1.2,4.95.69,2.01.48,3.76-.77,5.49-.66.91-1.11,1.99-1.5,3.05-.33.9-.7,1.58-1.76,1.75-.4.07-.74.5-1.1.77-1.88-1.15-2.56-2.7-2.26-4.83.31-2.26,2.07-2.13,3.91-2.22-.25-.53-.46-.87-.57-1.24-.11-.38-.3-1-.14-1.14.96-.78.35-1.55.09-2.33-.41-1.23-.82-2.46-1.38-3.65.15.99-1.17,2.15.54,3.16-.48.68-1.01,1.44-1.46,2.09-1.61-.87-3.65-1.15-3.45-3.6.11-.06.4-.2.69-.34,0-.08-.01-.15-.02-.23-.51-.04-1.02-.08-1.2-.1-.46.45-.92.69-.94.97-.05.78-.18,1.74.19,2.33,1.01,1.62,1.41,3.11.2,4.78-.19.26-.12.71-.17,1.07h0c-.77-.23-1.63-.31-2.28-.72-.89-.56-1.72-1.29-2.38-2.11-.52-.64-1.18-1.49-.5-2.4,1.05-1.4,1.14-3.42,3.03-4.34.59-.28,1-1.38,1.09-2.15.19-1.69.75-3.21,1.67-4.58.23-.35,1-.33,1.53-.48.31-.09.62-.19.93-.29-.13-.29-.26-.58-.4-.87-.33-.73-1.47-1.39-.14-2.3.17-.12,0-1.19-.32-1.47-.9-.79-1.96-1.41-2.97-2.08-.19-.12-.45-.24-.65-.21-2.31.33-3.41-1.52-4.97-2.65-1,.37-2.06.77-3.15,1.17.06,1.36,1.11,2.18,2.85,1.97,1.11-.14,1.45.17,1.26,1.28-.15.88-.14,1.79-.15,2.68,0,1.53-1.45,3.23-3.15,3.4-.81.08-1.13.4-1.15,1.09-.04,1.51-.99,3-.1,4.55.36.62.68,1.3.86,1.99.37,1.42.61,2.88.94,4.31.07.3.25.58.42.85.24.4.74.78.74,1.17,0,1.8,1.76,2.63,2.2,4.1.65,2.14,2.43,3.26,3.78,4.77.75.85.1,1.52-.47,1.97-.22.18-1.17-.1-1.35-.42-.65-1.13-1.11-2.36-1.67-3.55-.13-.27-.28-.63-.52-.75-2.54-1.29-2.88-4.04-4.08-6.2-.27-.49.1-1.35.19-2.19-1.04.81-3.02-.06-3.32-1.38-.3-1.32-.21-2.73-.55-4.03-.34-1.28-.96-2.5-1.56-3.69-.43-.85-1.19-1.66.6-1.65.13,0,.31-.06.37-.16.78-1.39,2.15-1.12,3.39-1.22-.3-2.07-.51-4.19-2.8-5.7-.25.75-.39,1.46-.71,2.06-.65,1.2-.92,2.66-2.41,3.31-.48.21-.76.89-1.28,1.54-.4-.47-.8-.94-1.2-1.4,0,0,.01.01.01.01Z"/>
        <path class="cls-1" d="M214.22,91.12c.75-.33,1.51-.63,2.23-1.01.89-.46,1.54-.32,1.89.74.39-.3.71-.75,1.03-.74.46,0,1.16.22,1.32.56.55,1.12-.72,3.31-1.85,3.87-1.08.54-2,1.39-3.04,2.14-1.66-1.3-2.5.78-3.91,1.58.49.17,1.02.52,1.48.46.96-.14,1.11.39,1.43,1.07.26.55.79,1.2,1.33,1.36,1.45.45,1.93,1.4,1.05,2.59-.68.92-.86,1.64.08,2.65.72.76.97,1.96,1.34,2.78.74.16,1.4.3,2.12.46.05,1.01.11,1.97.16,2.93.62-.52,1.25-1.04,1.78-1.47.64.56,1.38,1.37,1.48,1.29.82-.58,1.51-1.34,2.35-2.16.21.28.56.73.77,1.01-1.29,3.96-4.45,6.05-7.54,8.45-.28-1.07-.15-1.93.45-2.74.61-.84.35-2.2-.6-2.77.26.91.42,1.55-.98,1.41-.66-.07-1.39.8-2.13,1.13-.26.12-.83.05-.98-.14-.85-1.1-1.63-2.26-2.41-3.41-.14-.21-.24-.57-.15-.77.54-1.23-.19-2.02-1.07-2.98,2.59-1.3,1.96-3.49,1.55-5.59-.05-.24-.67-.36-1.16-.61.01-.03.1-.3.32-.95h-5.62c-.85-.72-.09-1.81.3-2.74.39-.94,1.1-1.75,1.68-2.63q-.82-.64-5.54.98c.87-2.01,2.13-3.42,3.94-4.35.18-.37.37-.73.55-1.1-.05-.12-.11-.24-.16-.37-.64.28-1.28.56-1.9.83.02.08-.03-.11-.13-.5-1.38.93-2.68,1.83-4,2.69-.2.13-.5.1-.75.15-.03-.29-.11-.58-.08-.86.06-.49.18-.97.3-1.57-.55-.16-1.12-.33-1.68-.5-.16,0-.31,0-.47,0-.03-.15-.06-.3-.08-.45.73.23,1.09-.22,1.57-.69,1.07-1.04,1.2-1.15,1.06-2.68h3.47c-.01,1.21-2.7,1.44-.73,2.97.46-.1.93-.26,1.41-.3.8-.08,1-.48,1.13-1.26.1-.6.76-1.1,1.29-1.81-.8,0-1.58.22-2.05-.07-.39-.23-.41-1.07-.67-1.87-.15-.04-.61-.18-1.13-.33,1.43-.71,2.76-1.37,4.08-2.03,0,0-.04-.03-.04-.03.05.75-.24,1.52.55,2.16.31.25.21,1,.34,1.75,1.33-.71,2.74-1.45,4.23-2.25.29.16.69.39.75.42.1.95.2,1.63.22,2.31.02.53-.04,1.07-.09,1.61-.05.49-.13.97-.2,1.46-.28,0-.58-.06-.82.02q-2.44.88-4.04-1.1c.13.73.26,1.46.41,2.25h1.1c-.42,1.39-.79,2.64-1.17,3.89.91-.49,1.9-.91,2.75-1.53,1.2-.86,1.71-2.16,1.84-3.61Z"/>
      </g>
    </g>
  </g>
</svg>
